<mxfile host="65bd71144e">
    <diagram id="n47PfdpQimw19mJW8Zm3" name="Page-1">
        <mxGraphModel dx="652" dy="1722" grid="1" gridSize="10" guides="1" tooltips="1" connect="1" arrows="1" fold="1" page="1" pageScale="1" pageWidth="850" pageHeight="1100" math="0" shadow="0">
            <root>
                <mxCell id="0"/>
                <mxCell id="1" parent="0"/>
                <mxCell id="4" value="ENTRY" style="ellipse;shape=doubleEllipse;whiteSpace=wrap;html=1;aspect=fixed;" vertex="1" parent="1">
                    <mxGeometry x="30" y="200" width="80" height="80" as="geometry"/>
                </mxCell>
                <mxCell id="7" value="" style="shape=flexArrow;endArrow=classic;html=1;endWidth=22;endSize=7.09;" edge="1" parent="1">
                    <mxGeometry width="50" height="50" relative="1" as="geometry">
                        <mxPoint x="130" y="230" as="sourcePoint"/>
                        <mxPoint x="200" y="230" as="targetPoint"/>
                    </mxGeometry>
                </mxCell>
                <mxCell id="8" value="User sees Homepage&amp;nbsp;" style="rounded=0;whiteSpace=wrap;html=1;" vertex="1" parent="1">
                    <mxGeometry x="210" y="210" width="120" height="60" as="geometry"/>
                </mxCell>
                <mxCell id="10" value="" style="shape=flexArrow;endArrow=classic;html=1;" edge="1" parent="1">
                    <mxGeometry width="50" height="50" relative="1" as="geometry">
                        <mxPoint x="340" y="310" as="sourcePoint"/>
                        <mxPoint x="390" y="360" as="targetPoint"/>
                        <Array as="points">
                            <mxPoint x="360" y="330"/>
                            <mxPoint x="380" y="350"/>
                        </Array>
                    </mxGeometry>
                </mxCell>
                <mxCell id="13" value="" style="shape=flexArrow;endArrow=classic;html=1;" edge="1" parent="1">
                    <mxGeometry width="50" height="50" relative="1" as="geometry">
                        <mxPoint x="340" y="190" as="sourcePoint"/>
                        <mxPoint x="390" y="140" as="targetPoint"/>
                    </mxGeometry>
                </mxCell>
                <mxCell id="14" value="User uses search bar to search a recipe&amp;nbsp;" style="rounded=0;whiteSpace=wrap;html=1;" vertex="1" parent="1">
                    <mxGeometry x="400" y="60" width="130" height="70" as="geometry"/>
                </mxCell>
                <mxCell id="15" value="User selects a featured recipe from list of 4 pictures" style="rounded=0;whiteSpace=wrap;html=1;" vertex="1" parent="1">
                    <mxGeometry x="405" y="380" width="120" height="60" as="geometry"/>
                </mxCell>
                <mxCell id="19" value="" style="shape=flexArrow;endArrow=classic;html=1;" edge="1" parent="1">
                    <mxGeometry width="50" height="50" relative="1" as="geometry">
                        <mxPoint x="550" y="130" as="sourcePoint"/>
                        <mxPoint x="580" y="170" as="targetPoint"/>
                    </mxGeometry>
                </mxCell>
                <mxCell id="20" value="No results matching." style="rounded=0;whiteSpace=wrap;html=1;" vertex="1" parent="1">
                    <mxGeometry x="590" y="170" width="120" height="60" as="geometry"/>
                </mxCell>
                <mxCell id="21" value="The words is a match and the recipe will display on the page" style="rounded=0;whiteSpace=wrap;html=1;" vertex="1" parent="1">
                    <mxGeometry x="590" y="-30" width="120" height="60" as="geometry"/>
                </mxCell>
                <mxCell id="22" value="" style="shape=flexArrow;endArrow=classic;html=1;" edge="1" parent="1">
                    <mxGeometry width="50" height="50" relative="1" as="geometry">
                        <mxPoint x="540" y="40" as="sourcePoint"/>
                        <mxPoint x="575" as="targetPoint"/>
                    </mxGeometry>
                </mxCell>
                <mxCell id="23" value="" style="shape=flexArrow;endArrow=classic;html=1;" edge="1" parent="1">
                    <mxGeometry width="50" height="50" relative="1" as="geometry">
                        <mxPoint x="540" y="409.5" as="sourcePoint"/>
                        <mxPoint x="610" y="409.5" as="targetPoint"/>
                        <Array as="points">
                            <mxPoint x="570" y="409.5"/>
                        </Array>
                    </mxGeometry>
                </mxCell>
                <mxCell id="24" value="Recipe will load&amp;nbsp;" style="rounded=0;whiteSpace=wrap;html=1;" vertex="1" parent="1">
                    <mxGeometry x="650" y="380" width="120" height="60" as="geometry"/>
                </mxCell>
            </root>
        </mxGraphModel>
    </diagram>
</mxfile>